<svg width="85" height="106" viewBox="0 0 85 106" fill="none" xmlns="http://www.w3.org/2000/svg">
<g clip-path="url(#clip0_29_4837)">
<path d="M72.7611 90.3381C69.6417 88.6943 66.3998 87.4479 63.3053 85.9283C61.2368 84.9097 57.8952 82.8166 56.5183 79.4586C58.4124 78.1191 60.2046 76.5084 61.8536 74.6348C64.3977 71.7425 66.5514 68.2955 68.2316 64.4778C73.0248 61.2792 77.0103 57.1717 79.789 52.5528C82.8378 47.4847 84.4494 41.7686 84.4494 36.0214C84.4494 26.3033 80.0196 17.196 71.9781 10.3805C64.0821 3.68723 53.6108 0 42.4998 0C31.3888 0 20.9175 3.68723 13.0193 10.3805C4.97791 17.1981 0.548054 26.3054 0.548054 36.0234C0.548054 41.7706 2.15967 47.4868 5.20843 52.5549C7.98722 57.1738 11.9747 61.2813 16.7659 64.4799C18.4461 68.2975 20.5997 71.7446 23.1438 74.6348C24.7928 76.5084 26.5851 78.1191 28.4792 79.4586C27.1022 82.8166 23.7586 84.9097 21.6901 85.9283C18.5977 87.4479 15.3558 88.6943 12.2343 90.3381C7.34133 92.9136 3.38291 96.5863 0.471212 101.253C-0.843414 103.217 0.749506 106.072 3.11708 105.998H81.8783C84.2459 106.072 85.8367 103.217 84.5242 101.253C81.6125 96.5863 77.6562 92.9136 72.7611 90.3381ZM25.5779 28.2908C26.4169 27.4254 27.3079 26.6325 28.2466 25.9141C31.4698 23.4546 35.2475 21.8791 39.2641 21.3366C38.9297 24.1233 37.8726 28.2618 34.6556 31.4129C31.4719 34.5328 26.7367 36.0918 20.552 36.0669C21.6755 33.2099 23.3681 30.5723 25.5779 28.2908ZM78.219 36.0234C78.219 42.3627 75.8639 48.3708 71.569 53.3582C71.9989 50.9235 72.1422 49.3521 72.2793 45.7663C72.57 37.5948 69.596 29.858 63.9076 23.9804C58.2607 18.1484 50.6907 14.929 42.5828 14.9062C42.5745 14.9062 42.5662 14.9062 42.5579 14.9062C42.5392 14.9062 42.5185 14.9062 42.4998 14.9062C42.4811 14.9062 42.4603 14.9062 42.4416 14.9062C42.4333 14.9062 42.425 14.9062 42.4167 14.9062C36.2402 14.9228 30.3753 16.7985 25.4346 20.2684C21.8105 20.053 19.1231 16.4052 20.0307 12.8629C26.1718 8.70359 33.9931 6.20887 42.4998 6.20887C62.1963 6.20887 78.221 19.5831 78.221 36.0214L78.219 36.0234ZM64.4455 36.069C58.2836 36.0918 53.5609 34.5473 50.3771 31.4522C47.1643 28.3281 46.0927 24.1543 45.7479 21.3408C50.9379 22.0509 55.7063 24.4566 59.4238 28.297C61.6314 30.5785 63.322 33.214 64.4455 36.0711V36.069ZM6.77643 36.0234C6.77643 29.2018 9.53652 22.9101 14.172 17.8813C15.1294 20.9743 17.2893 23.5436 20.1034 25.0508C15.0588 30.7814 12.4441 38.0793 12.7161 45.7643C12.8532 49.377 12.9965 50.9235 13.4264 53.3561C9.13154 48.3666 6.77643 42.3607 6.77643 36.0214V36.0234ZM19.3765 51.1347C19.094 49.408 18.7534 44.8305 19.0546 42.2468C19.607 42.2675 20.1553 42.2799 20.6932 42.2799C28.5041 42.2799 34.6577 40.1227 39.0253 35.8412C40.477 34.4189 41.6109 32.8724 42.4998 31.299C43.3887 32.8703 44.5226 34.4189 45.9743 35.8412C50.4976 40.4436 57.9845 42.6443 65.945 42.2447C66.2461 44.8347 65.9034 49.379 65.6231 51.1326C63.324 66.6082 53.6336 77.8479 42.5662 77.8914C42.5621 77.8914 42.5579 77.8914 42.5538 77.8914C42.5496 77.8914 42.5455 77.8914 42.5434 77.8914H42.5289C42.5289 77.8914 42.5205 77.8914 42.5143 77.8914H42.4873C42.4873 77.8914 42.479 77.8914 42.4728 77.8914C42.4665 77.8914 42.4624 77.8914 42.4582 77.8914H42.4479C42.4479 77.8914 42.4395 77.8914 42.4354 77.8914C31.368 77.8479 21.6797 66.6082 19.3786 51.1326L19.3765 51.1347ZM9.61544 99.7891C11.2416 98.2363 13.09 96.9134 15.1419 95.8327C18.1117 94.2717 21.3682 93.0191 24.4481 91.4975C28.9818 89.2657 32.2548 86.1312 33.9682 82.4502C36.6909 83.535 39.5777 84.1127 42.5102 84.1044C45.4343 84.1085 48.3107 83.5309 51.0293 82.4502C52.7426 86.1312 56.0136 89.2657 60.5473 91.4975C63.6293 93.0191 66.8837 94.2717 69.8535 95.8327C71.9075 96.9134 73.7538 98.2363 75.382 99.7891H9.61752H9.61544Z" fill="#FB0043"/>
<path d="M37.9706 51.7807C39.2271 50.6089 39.2956 48.6421 38.1202 47.3895C36.9447 46.137 34.9759 46.0687 33.7194 47.2405C33.6218 47.3233 33.0486 47.6338 32.0289 47.6338C31.0091 47.6338 30.4401 47.3254 30.3404 47.2405C29.0839 46.0707 27.1151 46.1391 25.9396 47.3895C24.7641 48.6421 24.8306 50.6068 26.0871 51.7786C27.4952 53.0912 29.6613 53.8427 32.0289 53.8427C34.3964 53.8427 36.5626 53.0891 37.9706 51.7786V51.7807Z" fill="#FB0043"/>
<path d="M52.9712 53.8468C55.3409 53.8468 57.507 53.0932 58.913 51.7807C60.1695 50.6089 60.238 48.6421 59.0626 47.3895C57.8871 46.137 55.9182 46.0687 54.6618 47.2405C54.5642 47.3233 53.991 47.6338 52.9712 47.6338C51.9515 47.6338 51.3783 47.3233 51.2849 47.2425C50.0284 46.0707 48.0575 46.137 46.882 47.3895C45.7065 48.6421 45.773 50.6068 47.0295 51.7786C48.4375 53.0912 50.6037 53.8448 52.9712 53.8448V53.8468Z" fill="#FB0043"/>
<path d="M38.2051 62.3413C37.0296 61.0888 35.0587 61.0225 33.8022 62.1943C32.3027 63.5649 32.6101 65.894 34.1615 67.0885C36.4232 69.2189 39.3826 70.3928 42.4978 70.3928C45.6131 70.3928 48.5746 69.2189 50.8217 67.101C52.3835 65.9022 52.6992 63.5711 51.1935 62.1943C49.8311 60.9128 47.721 61.1612 46.5539 62.5773C45.4552 63.6125 44.0139 64.1839 42.4978 64.1839C40.88 64.186 39.3265 63.5214 38.2051 62.3413Z" fill="#FB0043"/>
</g>
<defs>
<clipPath id="clip0_29_4837">
<rect width="85" height="106" fill="white"/>
</clipPath>
</defs>
</svg>
