<svg width="45" height="54" viewBox="0 0 45 54" fill="none" xmlns="http://www.w3.org/2000/svg">
<path d="M25.9533 19.2415C26.0467 19.0805 26.1712 19 26.3268 19H29.1751C29.2529 19 29.2918 19.0241 29.2918 19.0724C29.3074 19.1207 29.2996 19.1771 29.2685 19.2415L20.0467 35.7585C19.9533 35.9195 19.8288 36 19.6732 36H16.8249C16.7471 36 16.7004 35.9759 16.6848 35.9276C16.6848 35.8793 16.7004 35.8229 16.7315 35.7585L25.9533 19.2415ZM17.6187 27.7415C16.7315 27.7415 16.0078 27.5563 15.4475 27.1861C14.8872 26.8158 14.4981 26.2926 14.2802 25.6165C14.2023 25.3911 14.1323 25.1094 14.07 24.7713C14.0233 24.4332 14 23.9825 14 23.419C14 22.8556 14.0233 22.4048 14.07 22.0668C14.1323 21.7287 14.2023 21.447 14.2802 21.2216C14.4981 20.5455 14.8872 20.0223 15.4475 19.652C16.0078 19.2817 16.7315 19.0966 17.6187 19.0966C18.5058 19.0966 19.2296 19.2817 19.7899 19.652C20.3502 20.0223 20.7393 20.5455 20.9572 21.2216C21.035 21.447 21.0973 21.7287 21.144 22.0668C21.2062 22.4048 21.2374 22.8556 21.2374 23.419C21.2374 23.9825 21.2062 24.4332 21.144 24.7713C21.0973 25.1094 21.035 25.3911 20.9572 25.6165C20.7393 26.2926 20.3502 26.8158 19.7899 27.1861C19.2296 27.5563 18.5058 27.7415 17.6187 27.7415ZM17.6187 25.4957C17.8521 25.4957 18 25.3911 18.0623 25.1818C18.0778 25.1335 18.0856 25.0852 18.0856 25.0369C18.1012 24.9886 18.1089 24.9081 18.1089 24.7955C18.1245 24.6667 18.1323 24.4976 18.1323 24.2884C18.1323 24.063 18.1323 23.7732 18.1323 23.419C18.1323 23.0649 18.1323 22.7831 18.1323 22.5739C18.1323 22.3646 18.1245 22.2036 18.1089 22.0909C18.1089 21.9621 18.1012 21.8736 18.0856 21.8253C18.0856 21.7609 18.0778 21.7045 18.0623 21.6563C18 21.447 17.8521 21.3423 17.6187 21.3423C17.3852 21.3423 17.2374 21.447 17.1751 21.6563C17.1595 21.7045 17.144 21.7609 17.1284 21.8253C17.1284 21.8736 17.1206 21.9621 17.1051 22.0909C17.1051 22.2036 17.1051 22.3646 17.1051 22.5739C17.1051 22.7831 17.1051 23.0649 17.1051 23.419C17.1051 23.7732 17.1051 24.063 17.1051 24.2884C17.1051 24.4976 17.1051 24.6667 17.1051 24.7955C17.1206 24.9081 17.1284 24.9886 17.1284 25.0369C17.144 25.0852 17.1595 25.1335 17.1751 25.1818C17.2374 25.3911 17.3852 25.4957 17.6187 25.4957ZM25.0428 33.7784C24.965 33.553 24.8949 33.2713 24.8327 32.9332C24.786 32.5952 24.7626 32.1444 24.7626 31.581C24.7626 31.0175 24.786 30.5668 24.8327 30.2287C24.8949 29.8906 24.965 29.6089 25.0428 29.3835C25.2607 28.7074 25.6498 28.1842 26.2101 27.8139C26.7704 27.4437 27.4942 27.2585 28.3813 27.2585C29.2685 27.2585 29.9922 27.4437 30.5525 27.8139C31.1128 28.1842 31.5019 28.7074 31.7198 29.3835C31.7977 29.6089 31.8599 29.8906 31.9066 30.2287C31.9689 30.5668 32 31.0175 32 31.581C32 32.1444 31.9689 32.5952 31.9066 32.9332C31.8599 33.2713 31.7977 33.553 31.7198 33.7784C31.5019 34.4545 31.1128 34.9777 30.5525 35.348C29.9922 35.7183 29.2685 35.9034 28.3813 35.9034C27.4942 35.9034 26.7704 35.7183 26.2101 35.348C25.6498 34.9777 25.2607 34.4545 25.0428 33.7784ZM27.9377 33.3438C28 33.553 28.1479 33.6577 28.3813 33.6577C28.6148 33.6577 28.7626 33.553 28.8249 33.3438C28.8405 33.2955 28.8482 33.2472 28.8482 33.1989C28.8638 33.1506 28.8716 33.0701 28.8716 32.9574C28.8872 32.8286 28.8949 32.6596 28.8949 32.4503C28.8949 32.2249 28.8949 31.9351 28.8949 31.581C28.8949 31.2268 28.8949 30.9451 28.8949 30.7358C28.8949 30.5265 28.8872 30.3655 28.8716 30.2528C28.8716 30.1241 28.8638 30.0355 28.8482 29.9872C28.8482 29.9228 28.8405 29.8665 28.8249 29.8182C28.7626 29.6089 28.6148 29.5043 28.3813 29.5043C28.1479 29.5043 28 29.6089 27.9377 29.8182C27.9222 29.8665 27.9066 29.9228 27.8911 29.9872C27.8911 30.0355 27.8833 30.1241 27.8677 30.2528C27.8677 30.3655 27.8677 30.5265 27.8677 30.7358C27.8677 30.9451 27.8677 31.2268 27.8677 31.581C27.8677 31.9351 27.8677 32.2249 27.8677 32.4503C27.8677 32.6596 27.8677 32.8286 27.8677 32.9574C27.8833 33.0701 27.8911 33.1506 27.8911 33.1989C27.9066 33.2472 27.9222 33.2955 27.9377 33.3438Z" fill="#C8C9CC"/>
<path d="M18.7684 48.1612C18.3983 48.8587 17.9512 49.5252 17.6736 50.2536C16.7331 52.7491 14.9984 53.9968 12.3464 53.9968C10.0104 54.0045 7.67439 53.9968 5.33841 53.989C2.14667 53.9735 0.00342836 51.8346 0.00342836 48.6262C-0.00428133 34.2193 0.00342129 19.8124 0.00342129 5.39775C0.00342129 2.17383 2.11584 0.0348726 5.31529 0.0116232C7.6744 -0.00387638 10.0335 -0.00387342 12.3926 0.0116262C15.0061 0.019376 16.7639 1.27484 17.6505 3.74703C18.4292 5.94023 20.264 7.2887 22.469 7.30419C24.6893 7.31969 26.555 5.95573 27.3491 3.73153C28.2125 1.29809 29.9934 0.0193823 32.5453 0.0116325C34.9275 0.00388266 37.3098 -0.00387157 39.6843 0.011628C42.8375 0.0348774 44.9807 2.17383 44.9884 5.3435C45.0039 19.7736 45.0038 34.2038 44.9884 48.6339C44.9884 51.8424 42.8298 53.9813 39.638 53.9813C37.3021 53.989 34.9738 53.989 32.6301 53.989C29.978 53.989 28.2357 52.7491 27.3259 50.2226C26.0076 46.557 21.5746 45.4953 18.7684 48.1457M15.7694 45.069C16.3322 44.6428 16.8564 44.1778 17.4501 43.798C22.6617 40.5276 29.3073 42.8526 31.3966 48.6727C31.651 49.3624 32.021 49.6259 32.7457 49.6104C35.0123 49.5794 37.2789 49.5949 39.5455 49.5949C40.4552 49.5949 40.6403 49.4244 40.648 48.5332C40.6557 34.1728 40.648 19.8124 40.648 5.45974C40.648 4.56076 40.4707 4.38252 39.5686 4.37477C37.3483 4.37477 35.128 4.37478 32.9076 4.37478C31.7975 4.37478 31.7589 4.39802 31.3811 5.42875C29.8547 9.59815 25.6992 12.1788 21.3356 11.5743C17.6042 11.0474 15.0447 8.95491 13.657 5.4365C13.2561 4.42902 13.2252 4.38252 12.1228 4.37477C9.8716 4.37477 7.63585 4.37477 5.38467 4.37477C4.55975 4.38252 4.36701 4.56076 4.36701 5.38224C4.35931 19.7891 4.36701 34.196 4.36701 48.5952C4.3593 49.4089 4.55975 49.5949 5.37696 49.5949C7.71294 49.6027 10.0489 49.5794 12.3849 49.6027C13.0325 49.6027 13.3794 49.3469 13.5722 48.7347C14.027 47.3475 14.7671 46.1385 15.7617 45.0613" fill="#C8C9CC"/>
</svg>
