<svg width="42" height="42" viewBox="0 0 42 42" fill="none" xmlns="http://www.w3.org/2000/svg">
<path fill-rule="evenodd" clip-rule="evenodd" d="M11.2286 4.77168C11.2286 4.63026 11.2286 4.55955 11.1846 4.51561C11.1407 4.47168 11.07 4.47168 10.9286 4.47168H8C4.22876 4.47168 2.34315 4.47168 1.17157 5.64325C0 6.81483 0 8.70044 0 12.4717V33.5003C0 37.2715 0 39.1571 1.17157 40.3287C2.34315 41.5003 4.22877 41.5003 8.00001 41.5003H33.6571C37.4284 41.5003 39.314 41.5003 40.4856 40.3287C41.6571 39.1571 41.6571 37.2715 41.6571 33.5003V12.4717C41.6571 8.70044 41.6571 6.81483 40.4856 5.64325C39.314 4.47168 37.4284 4.47168 33.6571 4.47168H30.7286C30.5872 4.47168 30.5164 4.47168 30.4725 4.51561C30.4286 4.55955 30.4286 4.63026 30.4286 4.77168L30.4286 10.2574C30.4286 11.0858 29.757 11.7574 28.9286 11.7574C28.1002 11.7574 27.4286 11.0858 27.4286 10.2574L27.4286 4.77168C27.4286 4.63026 27.4286 4.55955 27.3846 4.51561C27.3407 4.47168 27.27 4.47168 27.1286 4.47168H14.5286C14.3872 4.47168 14.3164 4.47168 14.2725 4.51561C14.2286 4.55955 14.2286 4.63026 14.2286 4.77168L14.2286 10.2574C14.2286 11.0858 13.557 11.7574 12.7286 11.7574C11.9002 11.7574 11.2286 11.0858 11.2286 10.2574L11.2286 4.77168Z" fill="#7E869E" fill-opacity="0.25"/>
<path d="M12.8281 1L12.8281 10" stroke="#222222" stroke-width="2" stroke-linecap="round"/>
<path d="M28.8281 1L28.8281 10" stroke="#222222" stroke-width="2" stroke-linecap="round"/>
<circle cx="10.3281" cy="19.5" r="1.5" fill="#222222"/>
<circle cx="17.3281" cy="19.5" r="1.5" fill="#222222"/>
<circle cx="24.3281" cy="19.5" r="1.5" fill="#222222"/>
<circle cx="31.3281" cy="19.5" r="1.5" fill="#222222"/>
<circle cx="10.3281" cy="26.5" r="1.5" fill="#222222"/>
<circle cx="17.3281" cy="26.5" r="1.5" fill="#222222"/>
<circle cx="24.3281" cy="26.5" r="1.5" fill="#222222"/>
<circle cx="31.3281" cy="26.5" r="1.5" fill="#222222"/>
<circle cx="10.3281" cy="33.5" r="1.5" fill="#222222"/>
<circle cx="17.3281" cy="33.5" r="1.5" fill="#222222"/>
<circle cx="24.3281" cy="33.5" r="1.5" fill="#222222"/>
<circle cx="31.3281" cy="33.5" r="1.5" fill="#222222"/>
</svg>
