<svg width="41" height="47" viewBox="0 0 41 47" fill="none" xmlns="http://www.w3.org/2000/svg">
<g filter="url(#filter0_d_29_4694)">
<path d="M18.7569 33.9178C18.5942 34.2567 18.3976 34.5805 18.2756 34.9345C17.8622 36.147 17.0996 36.7533 15.9338 36.7533C14.907 36.757 13.8801 36.7533 12.8532 36.7495C11.4502 36.742 10.508 35.7027 10.508 34.1437C10.5047 27.1436 10.508 20.1434 10.508 13.1395C10.508 11.573 11.4366 10.5337 12.8431 10.5224C13.8801 10.5149 14.9171 10.5149 15.9542 10.5224C17.103 10.5262 17.8757 11.1362 18.2655 12.3374C18.6078 13.403 19.4143 14.0582 20.3836 14.0658C21.3596 14.0733 22.1798 13.4106 22.5288 12.3299C22.9084 11.1475 23.6913 10.5262 24.813 10.5224C25.8602 10.5186 26.9074 10.5149 27.9512 10.5224C29.3373 10.5337 30.2795 11.573 30.2829 13.1131C30.2896 20.1246 30.2896 27.136 30.2829 34.1475C30.2829 35.7064 29.3339 36.7457 27.9309 36.7457C26.904 36.7495 25.8806 36.7495 24.8503 36.7495C23.6845 36.7495 22.9186 36.147 22.5187 34.9194C21.9391 33.1383 19.9905 32.6225 18.7569 33.9103M17.4385 32.4153C17.6859 32.2082 17.9164 31.9823 18.1774 31.7978C20.4683 30.2087 23.3896 31.3384 24.3081 34.1663C24.4199 34.5015 24.5826 34.6295 24.9011 34.622C25.8975 34.6069 26.8939 34.6144 27.8902 34.6144C28.2901 34.6144 28.3715 34.5316 28.3749 34.0986C28.3783 27.121 28.3749 20.1434 28.3749 13.1696C28.3749 12.7328 28.2969 12.6462 27.9004 12.6424C26.9244 12.6424 25.9483 12.6424 24.9723 12.6424C24.4843 12.6424 24.4673 12.6537 24.3013 13.1545C23.6303 15.1804 21.8036 16.4343 19.8854 16.1406C18.2451 15.8845 17.12 14.8678 16.51 13.1583C16.3337 12.6688 16.3202 12.6462 15.8356 12.6424C14.846 12.6424 13.8632 12.6424 12.8736 12.6424C12.5109 12.6462 12.4262 12.7328 12.4262 13.1319C12.4228 20.1321 12.4262 27.1323 12.4262 34.1287C12.4228 34.5241 12.5109 34.6144 12.8702 34.6144C13.897 34.6182 14.9239 34.6069 15.9508 34.6182C16.2355 34.6182 16.388 34.4939 16.4727 34.1965C16.6726 33.5224 16.998 32.935 17.4352 32.4116" fill="white"/>
<path d="M12.0291 12.9101L11.6826 21.3801V34.855L14.1081 36.01L17.5731 34.855L20.3451 31.775L22.7705 33.315L24.8495 36.01H28.661L29.354 34.855L29.7005 13.2951L28.661 11.7551H24.503L23.81 12.9101L21.731 15.2201L19.3056 14.4501L16.8801 12.1401L12.7221 11.7551L12.0291 12.9101Z" fill="white"/>
<path d="M21.1915 28.6669V24.24H22.4981L22.7467 22.4069H21.1915V21.218C21.1915 20.7177 21.4098 20.2278 22.104 20.2278H22.8104V18.6722C22.8104 18.6722 22.1677 18.5488 21.5553 18.5488C20.276 18.5488 19.4393 19.426 19.4393 21.0124V22.4069H18.0176V24.24H19.4424V28.6669H21.1946H21.1915Z" fill="#ED1C24"/>
</g>
<defs>
<filter id="filter0_d_29_4694" x="6.50684" y="10.5168" width="27.7812" height="34.238" filterUnits="userSpaceOnUse" color-interpolation-filters="sRGB">
<feFlood flood-opacity="0" result="BackgroundImageFix"/>
<feColorMatrix in="SourceAlpha" type="matrix" values="0 0 0 0 0 0 0 0 0 0 0 0 0 0 0 0 0 0 127 0" result="hardAlpha"/>
<feOffset dy="4"/>
<feGaussianBlur stdDeviation="2"/>
<feComposite in2="hardAlpha" operator="out"/>
<feColorMatrix type="matrix" values="0 0 0 0 0 0 0 0 0 0 0 0 0 0 0 0 0 0 0.25 0"/>
<feBlend mode="normal" in2="BackgroundImageFix" result="effect1_dropShadow_29_4694"/>
<feBlend mode="normal" in="SourceGraphic" in2="effect1_dropShadow_29_4694" result="shape"/>
</filter>
</defs>
</svg>
