<svg width="92" height="114" viewBox="0 0 92 114" fill="none" xmlns="http://www.w3.org/2000/svg">
<g clip-path="url(#clip0_29_4819)" filter="url(#filter0_d_29_4819)">
<path d="M84.7446 87.9448H49.2533V81.5351H84.7446C86.5426 81.5351 87.9979 80.0818 87.9979 78.2909C87.9979 56.5444 70.8969 38.661 49.2533 37.0193V33.7813C49.2533 31.9884 47.7958 30.5371 46 30.5371C44.2042 30.5371 42.7467 31.9905 42.7467 33.7813V37.0193C21.101 38.661 4 56.5444 4 78.2909C4 80.0838 5.45744 81.5351 7.25329 81.5351H42.7446V87.9448H7.25329C5.45536 87.9448 4 89.3982 4 91.189V102.754C4 104.547 5.45744 105.998 7.25329 105.998H84.7446C86.5426 105.998 87.9979 104.545 87.9979 102.754V91.189C87.9979 89.3961 86.5405 87.9448 84.7446 87.9448ZM10.6602 75.0447C12.3294 57.3125 27.5412 43.3834 46 43.3834C64.4588 43.3834 79.6706 57.3125 81.3398 75.0447H46.1059C46.0706 75.0447 46.0374 75.0405 46 75.0405C45.9626 75.0405 45.9294 75.0447 45.8941 75.0447H10.6602ZM81.4913 99.5096H10.5087V94.4352H81.4913V99.5096Z" fill="#009C9A"/>
<path d="M46.0004 0C44.2024 0 42.7471 1.45336 42.7471 3.24418V13.0202C42.7471 14.8131 44.2045 16.2644 46.0004 16.2644C47.7962 16.2644 49.2536 14.811 49.2536 13.0202V3.24418C49.2536 1.45129 47.7962 0 46.0004 0Z" fill="#009C9A"/>
<path d="M28.8095 18.6535L21.7901 11.7408C20.5112 10.482 18.4517 10.4944 17.1894 11.7698C15.9272 13.0451 15.9396 15.0988 17.2185 16.3596L24.2379 23.2724C25.5168 24.5312 27.5763 24.5187 28.8386 23.2434C30.1009 21.9681 30.0884 19.9144 28.8095 18.6535Z" fill="#009C9A"/>
<path d="M74.8104 11.7717C73.5481 10.4964 71.4865 10.484 70.2076 11.7427L63.1882 18.6555C61.9093 19.9143 61.8969 21.9701 63.1592 23.2454C64.4215 24.5207 66.483 24.5331 67.7619 23.2744L74.7813 16.3616C76.0602 15.1028 76.0727 13.047 74.8104 11.7717Z" fill="#009C9A"/>
</g>
<defs>
<filter id="filter0_d_29_4819" x="0" y="0" width="92" height="114" filterUnits="userSpaceOnUse" color-interpolation-filters="sRGB">
<feFlood flood-opacity="0" result="BackgroundImageFix"/>
<feColorMatrix in="SourceAlpha" type="matrix" values="0 0 0 0 0 0 0 0 0 0 0 0 0 0 0 0 0 0 127 0" result="hardAlpha"/>
<feOffset dy="4"/>
<feGaussianBlur stdDeviation="2"/>
<feComposite in2="hardAlpha" operator="out"/>
<feColorMatrix type="matrix" values="0 0 0 0 0 0 0 0 0 0 0 0 0 0 0 0 0 0 0.25 0"/>
<feBlend mode="normal" in2="BackgroundImageFix" result="effect1_dropShadow_29_4819"/>
<feBlend mode="normal" in="SourceGraphic" in2="effect1_dropShadow_29_4819" result="shape"/>
</filter>
<clipPath id="clip0_29_4819">
<rect width="84" height="106" fill="white" transform="translate(4)"/>
</clipPath>
</defs>
</svg>
