<svg width="74" height="74" viewBox="0 0 74 74" fill="none" xmlns="http://www.w3.org/2000/svg">
<g filter="url(#filter0_d_29_4880)">
<circle cx="32" cy="27" r="17" fill="#49A5E8"/>
</g>
<path d="M34.0736 24.4341H29.9604C29.6766 24.4341 29.4463 24.664 29.4463 24.9472V29.0523C29.4463 29.3356 29.6766 29.5655 29.9604 29.5655H34.0736C34.3574 29.5655 34.5877 29.3356 34.5877 29.0523V24.9472C34.5877 24.664 34.3574 24.4341 34.0736 24.4341ZM33.5594 28.5392H30.4746V25.4604H33.5594V28.5392Z" fill="white"/>
<path d="M40.2432 25.4603C40.527 25.4603 40.7573 25.2305 40.7573 24.9472C40.7573 24.664 40.527 24.4341 40.2432 24.4341H38.7008V23.4078H40.2432C40.527 23.4078 40.7573 23.1779 40.7573 22.8946C40.7573 22.6114 40.527 22.3815 40.2432 22.3815H38.649C38.444 21.3778 37.6499 20.5852 36.6442 20.3806V18.7553C36.6442 18.4721 36.4139 18.2422 36.13 18.2422C35.8462 18.2422 35.6159 18.4721 35.6159 18.7553V20.329H34.5876V18.7553C34.5876 18.4721 34.3573 18.2422 34.0735 18.2422C33.7897 18.2422 33.5593 18.4721 33.5593 18.7553V20.329H32.531V18.7553C32.531 18.4721 32.3007 18.2422 32.0169 18.2422C31.7331 18.2422 31.5028 18.4721 31.5028 18.7553V20.329H30.4745V18.7553C30.4745 18.4721 30.2441 18.2422 29.9603 18.2422C29.6765 18.2422 29.4462 18.4721 29.4462 18.7553V20.329H28.4179V18.7553C28.4179 18.4721 28.1876 18.2422 27.9038 18.2422C27.6199 18.2422 27.3896 18.4721 27.3896 18.7553V20.3806C26.3839 20.5852 25.5898 21.3778 25.3848 22.3815H23.7563C23.4725 22.3815 23.2422 22.6114 23.2422 22.8946C23.2422 23.1779 23.4725 23.4078 23.7563 23.4078H25.333V24.4341H23.7563C23.4725 24.4341 23.2422 24.664 23.2422 24.9472C23.2422 25.2305 23.4725 25.4603 23.7563 25.4603H25.333V26.4866H23.7563C23.4725 26.4866 23.2422 26.7165 23.2422 26.9998C23.2422 27.283 23.4725 27.5129 23.7563 27.5129H25.333V28.5392H23.7563C23.4725 28.5392 23.2422 28.7691 23.2422 29.0523C23.2422 29.3356 23.4725 29.5655 23.7563 29.5655H25.333V30.5917H23.7563C23.4725 30.5917 23.2422 30.8216 23.2422 31.1049C23.2422 31.3881 23.4725 31.618 23.7563 31.618H25.3848C25.5898 32.6217 26.3839 33.4143 27.3896 33.6189V35.2442C27.3896 35.5275 27.6199 35.7573 27.9038 35.7573C28.1876 35.7573 28.4179 35.5275 28.4179 35.2442V33.6706H29.4462V35.2442C29.4462 35.5275 29.6765 35.7573 29.9603 35.7573C30.2441 35.7573 30.4745 35.5275 30.4745 35.2442V33.6706H31.5028V35.2442C31.5028 35.5275 31.7331 35.7573 32.0169 35.7573C32.3007 35.7573 32.531 35.5275 32.531 35.2442V33.6706H33.5593V35.2442C33.5593 35.5275 33.7897 35.7573 34.0735 35.7573C34.3573 35.7573 34.5876 35.5275 34.5876 35.2442V33.6706H35.6159V35.2442C35.6159 35.5275 35.8462 35.7573 36.13 35.7573C36.4139 35.7573 36.6442 35.5275 36.6442 35.2442V33.6189C37.6499 33.4143 38.444 32.6217 38.649 31.618H40.2432C40.527 31.618 40.7573 31.3881 40.7573 31.1049C40.7573 30.8216 40.527 30.5917 40.2432 30.5917H38.7008V29.5655H40.2432C40.527 29.5655 40.7573 29.3356 40.7573 29.0523C40.7573 28.7691 40.527 28.5392 40.2432 28.5392H38.7008V27.5129H40.2432C40.527 27.5129 40.7573 27.283 40.7573 26.9998C40.7573 26.7165 40.527 26.4866 40.2432 26.4866H38.7008V25.4603H40.2432ZM37.6725 31.1049C37.6725 31.9536 36.9804 32.6443 36.13 32.6443H27.9038C27.0534 32.6443 26.3613 31.9536 26.3613 31.1049V22.8946C26.3613 22.0459 27.0534 21.3552 27.9038 21.3552H36.13C36.9804 21.3552 37.6725 22.0459 37.6725 22.8946V31.1049Z" fill="white"/>
<path d="M29.9604 23.4076C30.2444 23.4076 30.4746 23.1779 30.4746 22.8945C30.4746 22.6111 30.2444 22.3813 29.9604 22.3813C29.6765 22.3813 29.4463 22.6111 29.4463 22.8945C29.4463 23.1779 29.6765 23.4076 29.9604 23.4076Z" fill="white"/>
<path d="M32.0171 23.4076C32.301 23.4076 32.5312 23.1779 32.5312 22.8945C32.5312 22.6111 32.301 22.3813 32.0171 22.3813C31.7331 22.3813 31.5029 22.6111 31.5029 22.8945C31.5029 23.1779 31.7331 23.4076 32.0171 23.4076Z" fill="white"/>
<path d="M34.0737 23.4076C34.3577 23.4076 34.5879 23.1779 34.5879 22.8945C34.5879 22.6111 34.3577 22.3813 34.0737 22.3813C33.7898 22.3813 33.5596 22.6111 33.5596 22.8945C33.5596 23.1779 33.7898 23.4076 34.0737 23.4076Z" fill="white"/>
<path d="M34.0737 31.6181C34.3577 31.6181 34.5879 31.3883 34.5879 31.1049C34.5879 30.8215 34.3577 30.5918 34.0737 30.5918C33.7898 30.5918 33.5596 30.8215 33.5596 31.1049C33.5596 31.3883 33.7898 31.6181 34.0737 31.6181Z" fill="white"/>
<path d="M32.0171 31.6181C32.301 31.6181 32.5312 31.3883 32.5312 31.1049C32.5312 30.8215 32.301 30.5918 32.0171 30.5918C31.7331 30.5918 31.5029 30.8215 31.5029 31.1049C31.5029 31.3883 31.7331 31.6181 32.0171 31.6181Z" fill="white"/>
<path d="M29.9604 31.6181C30.2444 31.6181 30.4746 31.3883 30.4746 31.1049C30.4746 30.8215 30.2444 30.5918 29.9604 30.5918C29.6765 30.5918 29.4463 30.8215 29.4463 31.1049C29.4463 31.3883 29.6765 31.6181 29.9604 31.6181Z" fill="white"/>
<path d="M27.9038 29.5653C28.1877 29.5653 28.4179 29.3356 28.4179 29.0522C28.4179 28.7688 28.1877 28.5391 27.9038 28.5391C27.6198 28.5391 27.3896 28.7688 27.3896 29.0522C27.3896 29.3356 27.6198 29.5653 27.9038 29.5653Z" fill="white"/>
<path d="M27.9038 27.5131C28.1877 27.5131 28.4179 27.2834 28.4179 27C28.4179 26.7166 28.1877 26.4868 27.9038 26.4868C27.6198 26.4868 27.3896 26.7166 27.3896 27C27.3896 27.2834 27.6198 27.5131 27.9038 27.5131Z" fill="white"/>
<path d="M27.9038 25.4604C28.1877 25.4604 28.4179 25.2306 28.4179 24.9472C28.4179 24.6638 28.1877 24.4341 27.9038 24.4341C27.6198 24.4341 27.3896 24.6638 27.3896 24.9472C27.3896 25.2306 27.6198 25.4604 27.9038 25.4604Z" fill="white"/>
<path d="M36.1304 25.4604C36.4143 25.4604 36.6445 25.2306 36.6445 24.9472C36.6445 24.6638 36.4143 24.4341 36.1304 24.4341C35.8464 24.4341 35.6162 24.6638 35.6162 24.9472C35.6162 25.2306 35.8464 25.4604 36.1304 25.4604Z" fill="white"/>
<path d="M36.1304 27.5131C36.4143 27.5131 36.6445 27.2834 36.6445 27C36.6445 26.7166 36.4143 26.4868 36.1304 26.4868C35.8464 26.4868 35.6162 26.7166 35.6162 27C35.6162 27.2834 35.8464 27.5131 36.1304 27.5131Z" fill="white"/>
<path d="M36.1304 29.5653C36.4143 29.5653 36.6445 29.3356 36.6445 29.0522C36.6445 28.7688 36.4143 28.5391 36.1304 28.5391C35.8464 28.5391 35.6162 28.7688 35.6162 29.0522C35.6162 29.3356 35.8464 29.5653 36.1304 29.5653Z" fill="white"/>
<defs>
<filter id="filter0_d_29_4880" x="0" y="0" width="74" height="74" filterUnits="userSpaceOnUse" color-interpolation-filters="sRGB">
<feFlood flood-opacity="0" result="BackgroundImageFix"/>
<feColorMatrix in="SourceAlpha" type="matrix" values="0 0 0 0 0 0 0 0 0 0 0 0 0 0 0 0 0 0 127 0" result="hardAlpha"/>
<feOffset dx="5" dy="10"/>
<feGaussianBlur stdDeviation="10"/>
<feColorMatrix type="matrix" values="0 0 0 0 0.827451 0 0 0 0 0.819608 0 0 0 0 0.847059 0 0 0 0.3 0"/>
<feBlend mode="normal" in2="BackgroundImageFix" result="effect1_dropShadow_29_4880"/>
<feBlend mode="normal" in="SourceGraphic" in2="effect1_dropShadow_29_4880" result="shape"/>
</filter>
</defs>
</svg>
