<svg width="41" height="47" viewBox="0 0 41 47" fill="none" xmlns="http://www.w3.org/2000/svg">
<path d="M18.8623 33.9178C18.6997 34.2567 18.5031 34.5805 18.3811 34.9345C17.9676 36.147 17.2051 36.7533 16.0393 36.7533C15.0124 36.757 13.9856 36.7533 12.9587 36.7495C11.5557 36.742 10.6135 35.7027 10.6135 34.1437C10.6101 27.1436 10.6135 20.1434 10.6135 13.1395C10.6135 11.573 11.5421 10.5337 12.9485 10.5224C13.9856 10.5149 15.0226 10.5149 16.0596 10.5224C17.2085 10.5262 17.9812 11.1362 18.3709 12.3374C18.7132 13.403 19.5198 14.0582 20.4891 14.0658C21.4651 14.0733 22.2852 13.4106 22.6343 12.3299C23.0139 11.1475 23.7967 10.5262 24.9185 10.5224C25.9657 10.5186 27.0129 10.5149 28.0567 10.5224C29.4428 10.5337 30.3849 11.573 30.3883 13.1131C30.3951 20.1246 30.3951 27.136 30.3883 34.1475C30.3883 35.7064 29.4394 36.7457 28.0364 36.7457C27.0095 36.7495 25.986 36.7495 24.9558 36.7495C23.7899 36.7495 23.024 36.147 22.6241 34.9194C22.0446 33.1383 20.0959 32.6225 18.8623 33.9103M17.544 32.4153C17.7914 32.2082 18.0219 31.9823 18.2828 31.7978C20.5738 30.2087 23.4951 31.3384 24.4135 34.1663C24.5254 34.5015 24.688 34.6295 25.0066 34.622C26.003 34.6069 26.9993 34.6144 27.9957 34.6144C28.3956 34.6144 28.4769 34.5316 28.4803 34.0986C28.4837 27.121 28.4803 20.1434 28.4803 13.1696C28.4803 12.7328 28.4024 12.6462 28.0059 12.6424C27.0298 12.6424 26.0538 12.6424 25.0778 12.6424C24.5898 12.6424 24.5728 12.6537 24.4067 13.1545C23.7357 15.1804 21.9091 16.4343 19.9909 16.1406C18.3506 15.8845 17.2254 14.8678 16.6154 13.1583C16.4392 12.6688 16.4256 12.6462 15.941 12.6424C14.9514 12.6424 13.9686 12.6424 12.979 12.6424C12.6164 12.6462 12.5317 12.7328 12.5317 13.1319C12.5283 20.1321 12.5317 27.1323 12.5317 34.1287C12.5283 34.5241 12.6164 34.6144 12.9756 34.6144C14.0025 34.6182 15.0294 34.6069 16.0562 34.6182C16.3409 34.6182 16.4934 34.4939 16.5782 34.1965C16.7781 33.5224 17.1034 32.935 17.5406 32.4116" fill="white"/>
<path d="M12.1346 12.9101L11.7881 21.3801V34.855L14.2136 36.01L17.6785 34.855L20.4505 31.775L22.876 33.315L24.955 36.01H28.7665L29.4595 34.855L29.806 13.2951L28.7665 11.7551H24.6085L23.9155 12.9101L21.8365 15.2201L19.411 14.4501L16.9856 12.1401L12.8276 11.7551L12.1346 12.9101Z" fill="white"/>
<path d="M22.4621 20.783C22.1851 20.783 21.9609 21.032 21.9609 21.3398C21.9609 21.6476 22.1851 21.8967 22.4621 21.8967C22.7392 21.8967 22.9633 21.6476 22.9633 21.3398C22.9633 21.032 22.7392 20.783 22.4621 20.783Z" fill="#ED1C24"/>
<path d="M20.2297 21.499C19.0654 21.499 18.1191 22.5505 18.1191 23.844C18.1191 25.1376 19.0654 26.1891 20.2297 26.1891C21.3939 26.1891 22.3402 25.1376 22.3402 23.844C22.3402 22.5505 21.3939 21.499 20.2297 21.499ZM20.2297 25.3451C19.4857 25.3451 18.8787 24.6707 18.8787 23.844C18.8787 23.0174 19.4857 22.343 20.2297 22.343C20.9736 22.343 21.5806 23.0174 21.5806 23.844C21.5806 24.6707 20.9736 25.3451 20.2297 25.3451Z" fill="#ED1C24"/>
<path d="M21.9045 28.6032H18.4835C17.064 28.6032 15.9092 27.32 15.9092 25.7428V21.9417C15.9092 20.3645 17.064 19.0813 18.4835 19.0813H21.9045C23.324 19.0813 24.4789 20.3645 24.4789 21.9417V25.7428C24.4789 27.32 23.324 28.6032 21.9045 28.6032ZM18.4835 19.9806C17.5092 19.9806 16.7154 20.8625 16.7154 21.9451V25.7463C16.7154 26.8289 17.5092 27.7108 18.4835 27.7108H21.9045C22.8789 27.7108 23.6726 26.8289 23.6726 25.7463V21.9451C23.6726 20.8625 22.8789 19.9806 21.9045 19.9806H18.4835Z" fill="#ED1C24"/>
</svg>
