<svg width="87" height="106" viewBox="0 0 87 106" fill="none" xmlns="http://www.w3.org/2000/svg">
<g clip-path="url(#clip0_29_4842)">
<path d="M86.945 101.576L80.5464 29.7429C80.3703 27.7797 78.7405 26.2781 76.7887 26.2781H63.5991V20.2767C63.6041 9.09586 54.5847 0 43.4978 0C32.4109 0 23.3915 9.09586 23.3915 20.2767V26.2781H10.1918C8.24004 26.2781 6.6102 27.7797 6.43414 29.7429L0.0154086 101.855C-0.0801681 102.921 0.271957 103.976 0.986267 104.762C1.70058 105.549 2.71168 106 3.76805 106H83.2225C85.3051 106 86.9953 104.295 86.9953 102.195C86.9953 101.982 86.9752 101.774 86.945 101.571V101.576ZM30.937 20.2767C30.937 13.2912 36.571 7.60948 43.4978 7.60948C50.4246 7.60948 56.0586 13.2912 56.0586 20.2767V26.2781H30.937V20.2767ZM7.89798 98.3956L13.6426 33.8875H23.3915V40.6904C23.3915 42.7906 25.0817 44.4951 27.1642 44.4951C29.2468 44.4951 30.937 42.7906 30.937 40.6904V33.8875H56.0586V40.6904C56.0586 42.7906 57.7488 44.4951 59.8314 44.4951C61.9139 44.4951 63.6041 42.7906 63.6041 40.6904V33.8875H73.3429L79.0876 98.3956H7.89798Z" fill="#FFCC00"/>
</g>
<defs>
<clipPath id="clip0_29_4842">
<rect width="87" height="106" fill="white"/>
</clipPath>
</defs>
</svg>
