<svg width="105" height="106" viewBox="0 0 105 106" fill="none" xmlns="http://www.w3.org/2000/svg">
<path d="M77.8433 51.2816C70.3138 51.2816 63.4933 54.385 58.5695 59.3869C60.5115 57.2151 61.6952 54.3436 61.6952 51.1967C61.6952 51.1305 61.6911 51.0622 61.6911 50.9959C61.6911 50.9628 61.6952 50.9297 61.6952 50.8945V3.10753C61.6952 1.04964 59.7409 -0.438919 57.7784 0.117995L20.4 10.7118C19.0705 11.0886 18.1519 12.3101 18.1519 13.7013V44.0376C16.3805 43.0232 14.3358 42.4393 12.1575 42.4393C5.45406 42.4393 -0.00195312 47.9339 -0.00195312 54.6894C-0.00195312 61.4448 5.452 66.9394 12.1575 66.9394C18.8629 66.9394 24.3169 61.4448 24.3169 54.6894C24.3169 54.621 24.3128 54.5548 24.3107 54.4885C24.3107 54.4554 24.3169 54.4223 24.3169 54.3871V35.4148L55.5281 26.5683V40.545C53.7567 39.5305 51.712 38.9467 49.5337 38.9467C42.8283 38.9467 37.3743 44.4413 37.3743 51.1967C37.3743 57.9522 42.8283 63.4468 49.5337 63.4468C52.8381 63.4468 55.8384 62.1094 58.0332 59.9459C53.4793 64.8401 50.6845 71.4175 50.6845 78.6408C50.6845 93.7272 62.8665 106 77.8413 106C92.816 106 104.998 93.7272 104.998 78.6408C104.998 63.5544 92.816 51.2816 77.8413 51.2816H77.8433ZM12.1595 60.7285C8.85508 60.7285 6.16509 58.0205 6.16509 54.6894C6.16509 51.3582 8.85508 48.6503 12.1595 48.6503C15.4639 48.6503 18.1539 51.3603 18.1539 54.6894C18.1539 58.0184 15.466 60.7285 12.1595 60.7285ZM49.5358 57.2379C46.2313 57.2379 43.5413 54.5299 43.5413 51.1988C43.5413 47.8677 46.2313 45.1597 49.5358 45.1597C52.8402 45.1597 55.5302 47.8698 55.5302 51.1988C55.5302 54.5279 52.8423 57.2379 49.5358 57.2379ZM55.5302 20.1193L24.3189 28.9657V16.0553L55.5302 7.20882V20.1193ZM77.8433 99.7911C66.2675 99.7911 56.8516 90.3029 56.8516 78.6429C56.8516 66.9829 66.2696 57.4946 77.8433 57.4946C89.4171 57.4946 98.8351 66.9829 98.8351 78.6429C98.8351 90.3049 89.4191 99.7911 77.8433 99.7911Z" fill="#1A77A3"/>
<path d="M91.0036 75.9515L72.9874 65.4715C70.9345 64.277 68.3637 65.7759 68.3637 68.1609V89.1207C68.3637 91.5078 70.9365 93.0026 72.9874 91.8101L91.0036 81.3301C93.0586 80.1356 93.0545 77.144 91.0036 75.9515ZM74.5287 83.7421V73.5396L83.2973 78.6408L74.5287 83.7421Z" fill="#1A77A3"/>
</svg>
