<svg width="16" height="18" viewBox="0 0 16 18" fill="none" xmlns="http://www.w3.org/2000/svg">
<path d="M7.10557 0.447213L1.78885 3.10557C1.00831 3.49585 0.618034 3.69098 0.618034 4C0.618034 4.30902 1.00831 4.50415 1.78885 4.89443L7.10557 7.55279C7.54448 7.77224 7.76393 7.88197 8 7.88197C8.23607 7.88197 8.45552 7.77224 8.89443 7.55279L14.2111 4.89443C14.9917 4.50415 15.382 4.30902 15.382 4C15.382 3.69098 14.9917 3.49585 14.2111 3.10557L8.89443 0.447214C8.45552 0.227761 8.23607 0.118034 8 0.118034C7.76393 0.118034 7.54448 0.22776 7.10557 0.447213Z" fill="#C8C9CC"/>
<path fill-rule="evenodd" clip-rule="evenodd" d="M3.02046 7.48926C3.62449 7.81356 4.33586 8.16924 5.15457 8.5786L6.2103 9.10646C7.08811 9.54537 7.52702 9.76482 7.99915 9.76482C8.47129 9.76482 8.9102 9.54537 9.78801 9.10646L10.8437 8.5786C11.6624 8.16924 12.3738 7.81356 12.9778 7.48926L14.2103 8.10549C14.9908 8.49576 15.3811 8.6909 15.3811 8.99991C15.3811 9.30893 14.9908 9.50407 14.2103 9.89434L8.89358 12.5527C8.45468 12.7722 8.23522 12.8819 7.99915 12.8819C7.76309 12.8819 7.54363 12.7722 7.10473 12.5527L1.78801 9.89434C1.00746 9.50407 0.617188 9.30893 0.617188 8.99991C0.617188 8.6909 1.00746 8.49576 1.78801 8.10549L3.02046 7.48926Z" fill="#C8C9CC"/>
<path fill-rule="evenodd" clip-rule="evenodd" d="M3.02072 12.4893C3.62469 12.8135 4.33598 13.1692 5.15459 13.5785L6.21032 14.1063C7.08813 14.5452 7.52703 14.7647 7.99917 14.7647C8.47131 14.7647 8.91021 14.5452 9.78803 14.1063L10.8438 13.5785C11.6624 13.1692 12.3736 12.8135 12.9776 12.4893L14.2103 13.1056C14.9908 13.4959 15.3811 13.691 15.3811 14C15.3811 14.3091 14.9908 14.5042 14.2103 14.8945L8.89358 17.5528C8.45468 17.7723 8.23522 17.882 7.99915 17.882C7.76309 17.882 7.54363 17.7723 7.10473 17.5528L7.10473 17.5528L1.78801 14.8945C1.00746 14.5042 0.617188 14.3091 0.617188 14C0.617188 13.691 1.00746 13.4959 1.78801 13.1056L3.02072 12.4893Z" fill="#C8C9CC"/>
</svg>
