<svg width="41" height="47" viewBox="0 0 41 47" fill="none" xmlns="http://www.w3.org/2000/svg">
<path d="M18.9688 33.9178C18.8061 34.2567 18.6096 34.5805 18.4875 34.9345C18.0741 36.147 17.3116 36.7533 16.1457 36.7533C15.1189 36.757 14.092 36.7533 13.0651 36.7495C11.6621 36.742 10.72 35.7027 10.72 34.1437C10.7166 27.1436 10.72 20.1434 10.72 13.1395C10.72 11.573 11.6485 10.5337 13.055 10.5224C14.092 10.5149 15.129 10.5149 16.1661 10.5224C17.315 10.5262 18.0876 11.1362 18.4774 12.3374C18.8197 13.403 19.6263 14.0582 20.5955 14.0658C21.5715 14.0733 22.3917 13.4106 22.7407 12.3299C23.1203 11.1475 23.9032 10.5262 25.0249 10.5224C26.0721 10.5186 27.1193 10.5149 28.1631 10.5224C29.5493 10.5337 30.4914 11.573 30.4948 13.1131C30.5016 20.1246 30.5016 27.136 30.4948 34.1475C30.4948 35.7064 29.5459 36.7457 28.1428 36.7457C27.1159 36.7495 26.0925 36.7495 25.0622 36.7495C23.8964 36.7495 23.1305 36.147 22.7306 34.9194C22.1511 33.1383 20.2024 32.6225 18.9688 33.9103M17.6505 32.4153C17.8979 32.2082 18.1283 31.9823 18.3893 31.7978C20.6802 30.2087 23.6016 31.3384 24.52 34.1663C24.6318 34.5015 24.7945 34.6295 25.113 34.622C26.1094 34.6069 27.1058 34.6144 28.1021 34.6144C28.5021 34.6144 28.5834 34.5316 28.5868 34.0986C28.5902 27.121 28.5868 20.1434 28.5868 13.1696C28.5868 12.7328 28.5088 12.6462 28.1123 12.6424C27.1363 12.6424 26.1602 12.6424 25.1842 12.6424C24.6962 12.6424 24.6793 12.6537 24.5132 13.1545C23.8422 15.1804 22.0155 16.4343 20.0973 16.1406C18.457 15.8845 17.3319 14.8678 16.7219 13.1583C16.5456 12.6688 16.5321 12.6462 16.0475 12.6424C15.0579 12.6424 14.0751 12.6424 13.0855 12.6424C12.7229 12.6462 12.6381 12.7328 12.6381 13.1319C12.6347 20.1321 12.6381 27.1323 12.6381 34.1287C12.6347 34.5241 12.7229 34.6144 13.0821 34.6144C14.109 34.6182 15.1358 34.6069 16.1627 34.6182C16.4474 34.6182 16.5999 34.4939 16.6846 34.1965C16.8845 33.5224 17.2099 32.935 17.6471 32.4116" fill="white"/>
<path d="M12.241 12.9101L11.8945 21.3801V34.855L14.32 36.01L17.785 34.855L20.557 31.775L22.9825 33.315L25.0614 36.01H28.8729L29.5659 34.855L29.9124 13.2951L28.8729 11.7551H24.7149L24.0219 12.9101L21.943 15.2201L19.5175 14.4501L17.092 12.1401L12.934 11.7551L12.241 12.9101Z" fill="white"/>
<path d="M22.3739 22.6869L26.758 17.145H25.718L21.91 21.9554L18.8666 17.145H15.3594L19.9576 24.4215L15.3594 30.2349H16.3993L20.4214 25.153L23.633 30.2349H27.1403L22.3688 22.6869H22.3739ZM20.9516 24.488L20.4877 23.762L16.7816 17.9985H18.3772L21.3696 22.6536L21.8335 23.3796L25.7231 29.4258H24.1275L20.9516 24.488Z" fill="#ED1C24"/>
</svg>
