<svg width="106" height="106" viewBox="0 0 106 106" fill="none" xmlns="http://www.w3.org/2000/svg">
<g clip-path="url(#clip0_29_4812)">
<path d="M40.9548 73.7466C42.6918 75.4836 45.0913 76.4794 47.5404 76.4794C48.1408 76.4794 48.7454 76.4194 49.3395 76.3034C51.7804 75.8252 53.8901 74.4236 55.2793 72.3595C56.6684 70.2933 57.1695 67.8131 56.6891 65.3701L56.2171 62.9582L60.2832 58.8921L63.7882 66.1692C63.8504 66.2976 63.9207 66.4239 64.0015 66.5419C64.3431 67.0553 64.7365 67.5377 65.1712 67.9725C66.902 69.7033 69.3036 70.6949 71.761 70.6949C73.5995 70.6949 75.3841 70.1546 76.9182 69.1319C81.1395 66.3204 82.3258 60.6374 79.6158 56.3787L73.9328 45.2404L81.6923 37.4788C83.4521 35.7191 84.421 33.3796 84.421 30.8911C84.421 28.4026 83.4521 26.0631 81.6923 24.3034C79.9325 22.5436 77.5931 21.5747 75.1046 21.5747C72.6161 21.5747 70.2766 22.5436 68.5168 24.3034L60.7552 32.065L49.6149 26.382C48.1181 25.4296 46.3956 24.9265 44.6213 24.9265C41.4951 24.9265 38.5925 26.4793 36.8618 29.0796C34.0151 33.3548 35.1765 39.1496 39.4517 41.9983C39.5718 42.077 39.696 42.1495 39.8265 42.2116L47.1036 45.7166L43.0375 49.7827L40.6256 49.3107C40.0335 49.1947 39.4269 49.1347 38.8265 49.1347C34.3877 49.1347 30.5452 52.3002 29.6902 56.6603C29.0836 59.7554 30.0918 62.8878 32.4603 65.2542C32.4603 65.2542 40.8616 73.6555 40.9506 73.7445L40.9548 73.7466ZM35.7893 57.8549C36.075 56.4015 37.3524 55.3456 38.8306 55.3456C39.0315 55.3456 39.2343 55.3663 39.4352 55.4057L43.4723 56.1965C44.4867 56.3953 45.5343 56.0765 46.2651 55.3456L54.5961 47.0147C55.3082 46.3025 55.6312 45.2901 55.4615 44.2985C55.2917 43.3068 54.654 42.458 53.7472 42.0211L42.7539 36.7273C41.4496 35.746 41.1204 33.8993 42.0375 32.5246C42.6152 31.6571 43.5841 31.1396 44.6275 31.1396C45.2382 31.1396 45.8304 31.3197 46.3438 31.6613C46.4432 31.7275 46.5467 31.7876 46.6543 31.8435L59.9499 38.6279C61.1486 39.2407 62.6061 39.0088 63.5564 38.0565L72.9142 28.6987C73.5001 28.1128 74.2806 27.7898 75.1108 27.7898C75.941 27.7898 76.7194 28.1128 77.3074 28.6987C77.8933 29.2845 78.2163 30.0651 78.2163 30.8953C78.2163 31.7254 77.8933 32.5039 77.3074 33.0919L67.9496 42.4497C66.9972 43.402 66.7674 44.8574 67.3802 46.0562L74.1626 59.3496C74.2164 59.4573 74.2785 59.5608 74.3448 59.6602C75.293 61.0866 74.9058 63.0162 73.4814 63.9664C72.9701 64.308 72.3759 64.4881 71.7672 64.4881C70.9453 64.4881 70.1441 64.159 69.5686 63.5834C69.465 63.4799 69.3677 63.3681 69.2808 63.2501L63.987 52.2547C63.5502 51.3479 62.7013 50.7081 61.7097 50.5404C60.718 50.3728 59.7056 50.6937 58.9934 51.4058L50.6625 59.7368C49.9316 60.4676 49.6128 61.5152 49.8116 62.5296L50.6024 66.5667C50.7618 67.3804 50.5941 68.2085 50.1325 68.8958C49.6687 69.5853 48.9669 70.0511 48.1532 70.2105C47.1409 70.4092 46.0809 70.0801 45.3583 69.3575C45.2859 69.2851 36.8659 60.8651 36.8659 60.8651C36.3483 60.3475 35.5223 59.2689 35.7997 57.8569L35.7893 57.8549Z" fill="#FF8324"/>
<path d="M27.8207 73.7881L24.3074 77.3014C23.0942 78.5146 23.0942 80.4814 24.3074 81.6925C24.914 82.2991 25.709 82.6014 26.504 82.6014C27.299 82.6014 28.094 82.2991 28.7006 81.6925L32.2139 78.1792C33.4271 76.966 33.4271 74.9992 32.2139 73.7881C31.0007 72.5749 29.036 72.5749 27.8228 73.7881H27.8207Z" fill="#FF8324"/>
<path d="M40.9967 82.5723C39.7835 81.3591 37.8187 81.3591 36.6055 82.5723L34.4089 84.7689C33.1957 85.9821 33.1957 87.9489 34.4089 89.16C35.0155 89.7666 35.8105 90.0689 36.6055 90.0689C37.4005 90.0689 38.1955 89.7666 38.8021 89.16L40.9987 86.9634C42.2119 85.7502 42.2119 83.7834 40.9987 82.5723H40.9967Z" fill="#FF8324"/>
<path d="M23.4273 65.0037C22.2141 63.7904 20.2494 63.7904 19.0362 65.0037L16.8396 67.2003C15.6264 68.4135 15.6264 70.3802 16.8396 71.5914C17.4462 72.198 18.2412 72.5003 19.0362 72.5003C19.8312 72.5003 20.6262 72.198 21.2328 71.5914L23.4294 69.3948C24.6426 68.1816 24.6426 66.2148 23.4294 65.0037H23.4273Z" fill="#FF8324"/>
<path d="M53 0C23.7299 0 0 23.7279 0 53C0 82.2721 23.7279 106 53 106C82.2721 106 106 82.2721 106 53C106 23.7279 82.2721 0 53 0ZM26.9286 14.1651C28.1045 16.4631 26.8395 19.1276 23.202 24.7941C20.3491 29.239 17.1153 34.2761 16.637 40.2759C16.5604 41.2303 16.1919 41.9238 15.4383 42.5284C13.8318 43.8161 10.7449 44.4455 7.0225 44.3068C9.38266 31.7959 16.7364 21.0282 26.9286 14.1651ZM6.21094 53C6.21094 52.1595 6.23371 51.323 6.27926 50.4908C6.85687 50.5218 7.45727 50.5405 8.07629 50.5405C11.8484 50.5405 16.2126 49.8718 19.3284 47.3729C21.4091 45.7042 22.6223 43.4186 22.8335 40.7686C23.1875 36.3195 25.8541 32.1644 28.4337 28.148C30.5185 24.9017 32.4873 21.8335 33.2492 18.61C33.8952 15.8731 33.5763 13.3432 32.3031 11.0472C38.5471 7.95414 45.5759 6.21094 53.0041 6.21094C78.8044 6.21094 99.7932 27.1998 99.7932 53C99.7932 64.5068 95.6153 75.055 88.7005 83.2121C85.2182 80.2536 82.0775 78.8085 78.9679 78.705C75.3966 78.587 72.7342 80.2577 70.3865 81.7297C68.9041 82.6593 67.5025 83.5392 66.0761 83.8166C65.5999 83.9098 64.6144 83.6779 63.66 83.4522C60.5898 82.7297 55.4533 81.5206 50.0084 86.9676C44.9837 91.9923 42.694 95.7747 41.6878 98.4019C21.3387 93.3276 6.21508 74.8977 6.21508 53H6.21094ZM47.9753 99.5179C48.847 97.7995 50.6523 95.1019 54.3954 91.3587C57.3932 88.3609 59.4242 88.8371 62.2336 89.4996C63.8257 89.8743 65.4716 90.2615 67.2562 89.9137C69.8171 89.4168 71.8709 88.1291 73.6824 86.9925C75.79 85.6695 77.1647 84.86 78.7588 84.9139C80.3074 84.9656 82.1852 85.8973 84.3652 87.6902C76.0612 95.2054 65.0554 99.7911 53 99.7911C51.3023 99.7911 49.6254 99.698 47.9753 99.5199V99.5179Z" fill="#FF8324"/>
</g>
<defs>
<clipPath id="clip0_29_4812">
<rect width="106" height="106" fill="white"/>
</clipPath>
</defs>
</svg>
